<svg width="38" height="39" viewBox="0 0 38 39" fill="none" xmlns="http://www.w3.org/2000/svg">
<path d="M37 19.5823C37 21.9461 36.5344 24.2867 35.6298 26.4706C34.7252 28.6544 33.3994 30.6387 31.7279 32.3102C30.0565 33.9817 28.0722 35.3075 25.8883 36.2121C23.7044 37.1167 21.3638 37.5823 19 37.5823C16.6362 37.5823 14.2956 37.1167 12.1117 36.2121C9.92784 35.3075 7.94353 33.9817 6.27208 32.3102C4.60062 30.6387 3.27475 28.6544 2.37017 26.4706C1.46558 24.2867 1 21.9461 1 19.5823" stroke="white" stroke-width="2"/>
<path d="M1 19.5823C1 17.2185 1.46558 14.8778 2.37017 12.694C3.27476 10.5101 4.60063 8.5258 6.27208 6.85435C7.94354 5.18289 9.92785 3.85702 12.1117 2.95244C14.2956 2.04786 16.6362 1.58227 19 1.58228C21.3638 1.58228 23.7045 2.04786 25.8883 2.95245C28.0722 3.85704 30.0565 5.18291 31.7279 6.85437C33.3994 8.52583 34.7253 10.5101 35.6298 12.694C36.5344 14.8779 37 17.2185 37 19.5823" stroke="black" stroke-width="2"/>
</svg>
